<?xml version="1.0" standalone="no"?>
<!DOCTYPE svg PUBLIC "-//W3C//DTD SVG 20010904//EN"
 "http://www.w3.org/TR/2001/REC-SVG-20010904/DTD/svg10.dtd">
<svg version="1.0" xmlns="http://www.w3.org/2000/svg"
 width="260.000000pt" height="260.000000pt" viewBox="0 0 260.000000 260.000000"
 preserveAspectRatio="xMidYMid meet">
<metadata>
Created by potrace 1.11, written by Peter Selinger 2001-2013
</metadata>
<g transform="translate(0.000000,260.000000) scale(0.100000,-0.100000)"
fill="#000000" stroke="none">
<path d="M0 1300 l0 -1300 1300 0 1300 0 0 1300 0 1300 -1300 0 -1300 0 0
-1300z m1372 899 c173 -37 305 -171 337 -343 17 -91 14 -1053 -3 -1133 -24
-110 -115 -232 -211 -281 -91 -46 -134 -52 -382 -52 l-233 0 0 910 0 910 220
0 c123 0 242 -5 272 -11z"/>
<path d="M1090 1300 l0 -700 129 0 c71 0 141 4 154 9 38 15 96 70 118 112 18
36 19 63 19 574 0 584 1 576 -58 639 -50 53 -93 66 -234 66 l-128 0 0 -700z"/>
</g>
</svg>
