<?xml version="1.0" standalone="no"?>
<!DOCTYPE svg PUBLIC "-//W3C//DTD SVG 20010904//EN"
 "http://www.w3.org/TR/2001/REC-SVG-20010904/DTD/svg10.dtd">
<svg version="1.0" xmlns="http://www.w3.org/2000/svg"
 width="1500.000000pt" height="1500.000000pt" viewBox="0 0 1500.000000 1500.000000"
 preserveAspectRatio="xMidYMid meet">
<metadata>
Created by potrace 1.11, written by Peter Selinger 2001-2013
</metadata>
<g transform="translate(0.000000,1500.000000) scale(0.100000,-0.100000)"
fill="#000000" stroke="none">
<path d="M0 7500 l0 -7500 7500 0 7500 0 0 7500 0 7500 -7500 0 -7500 0 0
-7500z m6765 5607 c27 -31 99 -193 160 -362 119 -328 257 -1019 309 -1545 52
-521 54 -1127 6 -1615 -52 -521 -163 -1103 -282 -1473 -31 -98 -122 -316 -160
-384 -39 -69 -128 -87 -176 -35 -59 63 -197 404 -256 634 -161 627 -241 1230
-253 1908 -13 773 71 1487 267 2250 77 300 189 589 246 634 39 31 108 25 139
-12z m-3310 -179 c20 -9 41 -40 80 -123 263 -547 356 -1211 254 -1815 -49
-290 -164 -637 -277 -830 -31 -54 -44 -67 -78 -79 -35 -12 -44 -12 -76 3 -31
15 -45 34 -87 114 -176 344 -283 777 -298 1207 -15 449 76 904 268 1344 68
156 96 191 154 191 19 0 46 -5 60 -12z m4906 -128 c14 -16 49 -77 77 -134 128
-258 188 -482 199 -751 12 -295 -48 -569 -185 -838 -78 -155 -114 -197 -166
-197 -59 0 -91 24 -141 105 -214 343 -289 830 -193 1250 42 182 168 486 234
565 48 56 127 57 175 0z m-3301 -229 c52 -37 212 -446 274 -702 67 -274 91
-506 83 -807 -6 -239 -27 -405 -76 -608 -74 -303 -215 -646 -288 -704 -31 -24
-90 -26 -120 -5 -51 36 -182 328 -247 554 -208 716 -154 1438 161 2138 53 118
73 145 118 155 29 7 66 -1 95 -21z m3313 -2991 c30 -24 67 -110 141 -327 266
-785 305 -1632 110 -2425 -66 -268 -191 -612 -241 -662 -51 -52 -126 -42 -169
21 -72 108 -203 509 -263 809 -65 319 -85 571 -78 947 6 299 21 464 67 708 66
352 234 873 298 926 35 30 99 31 135 3z m-3290 -1734 c47 -20 63 -42 123 -175
122 -275 210 -574 255 -871 21 -136 24 -190 23 -435 0 -314 -15 -444 -79 -710
-67 -278 -214 -639 -285 -698 -73 -62 -152 -40 -209 59 -100 176 -206 472
-260 726 -137 641 -66 1277 215 1918 58 133 95 185 137 193 40 8 47 7 80 -7z
m4904 -8 c41 -34 148 -295 202 -492 271 -988 288 -1994 51 -2951 -71 -288
-143 -492 -214 -604 -50 -79 -114 -95 -161 -40 -54 65 -150 290 -205 482 -249
867 -274 1887 -70 2804 90 406 226 772 300 811 27 14 75 9 97 -10z m1689 -854
c29 -14 42 -33 78 -108 99 -207 190 -498 230 -737 88 -514 11 -1081 -209
-1537 -57 -118 -68 -134 -99 -147 -45 -19 -60 -19 -101 1 -40 19 -100 127
-169 306 -251 651 -229 1382 61 2044 81 187 120 220 209 178z m-3281 -2596
c32 -15 51 -46 113 -188 247 -572 296 -1205 137 -1785 -62 -224 -176 -493
-231 -542 -34 -31 -101 -31 -139 -1 -64 50 -204 402 -259 650 -50 221 -59 316
-60 578 -1 259 7 344 51 555 59 282 210 684 275 729 27 19 77 21 113 4z"/>
</g>
</svg>
